<svg id="visual" viewBox="0 0 900 600" width="600" height="200" xmlns="http://www.w3.org/2000/svg" xmlns:xlink="http://www.w3.org/1999/xlink" version="1.1"><g transform="translate(471.7699178917559 288.10641087825655)"><path d="M101 -186.9C122.6 -162.4 126.3 -118.7 145.9 -84.4C165.6 -50 201.3 -25 218.8 10.1C236.2 45.2 235.5 90.3 220 131.9C204.5 173.5 174.2 211.4 135.1 229C96 246.6 48 243.8 6.3 233C-35.5 222.2 -71 203.3 -107.8 184.4C-144.6 165.5 -182.7 146.5 -215 115.7C-247.2 85 -273.6 42.5 -275.2 -0.9C-276.8 -44.3 -253.6 -88.7 -224 -124C-194.4 -159.4 -158.5 -185.8 -120.1 -200.6C-81.7 -215.5 -40.8 -218.7 -0.6 -217.7C39.7 -216.7 79.3 -211.4 101 -186.9" fill="#00ebc7"></path></g></svg>