<svg id="visual" viewBox="0 0 900 600" width="900" height="600" xmlns="http://www.w3.org/2000/svg" xmlns:xlink="http://www.w3.org/1999/xlink" version="1.1"><g transform="translate(461.76192115826086 324.7300629952366)"><path d="M138.7 -236.2C179.4 -216.7 211.8 -178.9 231.6 -136.4C251.5 -94 258.7 -47 252.2 -3.8C245.7 39.5 225.5 79 202.6 116.1C179.7 153.2 154.1 187.9 119.9 198.1C85.7 208.4 42.8 194.2 1.3 191.9C-40.2 189.6 -80.3 199.1 -120.3 192.2C-160.3 185.3 -200.1 161.9 -230 127.1C-259.9 92.3 -280 46.2 -277.9 1.2C-275.9 -43.8 -251.8 -87.7 -214.3 -109.3C-176.8 -131 -125.9 -130.4 -88 -151.5C-50 -172.6 -25 -215.3 12 -236.1C49 -256.9 98 -255.7 138.7 -236.2" fill="#00ebc7"></path></g></svg>