<svg width="100%" height="100%" id="svg" viewBox="0 0 1440 590" xmlns="http://www.w3.org/2000/svg" class="transition duration-300 ease-in-out delay-150"><defs><linearGradient id="gradient" x1="0%" y1="50%" x2="100%" y2="50%"><stop offset="5%" stop-color="#00ebc7"></stop><stop offset="95%" stop-color="#8ED1FC"></stop></linearGradient></defs><path d="M 0,600 L 0,150 C 75.15789473684208,169.27272727272725 150.31578947368416,188.54545454545453 239,197 C 327.68421052631584,205.45454545454547 429.8947368421053,203.0909090909091 535,209 C 640.1052631578947,214.9090909090909 748.1052631578947,229.0909090909091 850,222 C 951.8947368421053,214.9090909090909 1047.6842105263158,186.54545454545456 1145,171 C 1242.3157894736842,155.45454545454544 1341.157894736842,152.72727272727272 1440,150 L 1440,600 L 0,600 Z" stroke="none" stroke-width="0" fill="url(#gradient)" fill-opacity="0.53" class="transition-all duration-300 ease-in-out delay-150 path-0"></path><defs><linearGradient id="gradient" x1="0%" y1="50%" x2="100%" y2="50%"><stop offset="5%" stop-color="#00ebc7"></stop><stop offset="95%" stop-color="#8ED1FC"></stop></linearGradient></defs><path d="M 0,600 L 0,350 C 108.12440191387557,308.71770334928226 216.24880382775115,267.4354066985646 316,293 C 415.75119617224885,318.5645933014354 507.12918660287085,410.97607655502395 596,409 C 684.8708133971292,407.02392344497605 771.2344497607656,310.66028708133973 868,288 C 964.7655502392344,265.33971291866027 1071.933014354067,316.3827751196172 1169,339 C 1266.066985645933,361.6172248803828 1353.0334928229665,355.8086124401914 1440,350 L 1440,600 L 0,600 Z" stroke="none" stroke-width="0" fill="url(#gradient)" fill-opacity="1" class="transition-all duration-300 ease-in-out delay-150 path-1"></path></svg>