<svg id="visual" viewBox="0 0 900 450" width="900" height="450" xmlns="http://www.w3.org/2000/svg" xmlns:xlink="http://www.w3.org/1999/xlink" version="1.1"><rect x="0" y="0" width="900" height="450" fill="#FFFFFF"></rect><defs><linearGradient id="grad1_0" x1="50%" y1="0%" x2="100%" y2="100%"><stop offset="10%" stop-color="#ffffff" stop-opacity="1"></stop><stop offset="90%" stop-color="#ffffff" stop-opacity="1"></stop></linearGradient></defs><defs><linearGradient id="grad2_0" x1="0%" y1="0%" x2="50%" y2="100%"><stop offset="10%" stop-color="#ffffff" stop-opacity="1"></stop><stop offset="90%" stop-color="#ffffff" stop-opacity="1"></stop></linearGradient></defs><g transform="translate(900, 0)"><path d="M0 427.5C-92.8 426.7 -185.6 425.9 -213.7 370.2C-241.9 314.5 -205.5 203.9 -230.4 133C-255.2 62.1 -341.4 31.1 -427.5 0L0 0Z" fill="#00ebc7"></path></g><g transform="translate(0, 450)"><path d="M0 -427.5C29.2 -338.1 58.4 -248.8 129.5 -224.3C200.6 -199.8 313.6 -240.3 370.2 -213.8C426.9 -187.2 427.2 -93.6 427.5 0L0 0Z" fill="#00ebc7"></path></g></svg>