<svg id="visual" viewBox="0 0 900 450" width="900" height="450" xmlns="http://www.w3.org/2000/svg" xmlns:xlink="http://www.w3.org/1999/xlink" version="1.1"><g transform="translate(448.94148306322836 216.46875773950194)"><path d="M103.2 -120C130.1 -100.4 145.8 -64.4 159.2 -23C172.6 18.5 183.7 65.5 163.2 87.9C142.7 110.2 90.6 108 45.9 122.9C1.1 137.8 -36.2 169.9 -71.6 169.1C-107 168.2 -140.6 134.3 -157.5 95.5C-174.5 56.7 -174.9 12.9 -168.8 -31.2C-162.7 -75.3 -150.1 -119.6 -120.9 -138.8C-91.7 -158 -45.9 -152 -3.9 -147.4C38.1 -142.8 76.3 -139.6 103.2 -120" fill="#00ebc7"></path></g></svg>