<svg id="visual" viewBox="0 0 900 600" width="900" height="600" xmlns="http://www.w3.org/2000/svg" xmlns:xlink="http://www.w3.org/1999/xlink" version="1.1"><g transform="translate(455.13957356003874 291.9002433264001)"><path d="M91.2 -155.5C118.8 -142.1 142.1 -118.8 172.9 -91.2C203.6 -63.7 241.8 -31.8 254.9 7.6C268.1 47 256.1 94 232.5 133.8C208.8 173.7 173.4 206.3 132.7 207.9C92 209.4 46 179.7 0.4 179C-45.2 178.2 -90.3 206.5 -133.6 206.5C-176.9 206.5 -218.4 178.2 -243.3 139.1C-268.2 100 -276.6 50 -266.4 5.9C-256.1 -38.2 -227.2 -76.3 -199.8 -111.1C-172.4 -145.9 -146.4 -177.3 -113.4 -187.6C-80.3 -197.8 -40.2 -186.9 -4.2 -179.7C31.8 -172.5 63.7 -168.9 91.2 -155.5" fill="#00ebc7"></path></g></svg>