<svg xmlns="http://www.w3.org/2000/svg" xmlns:xlink="http://www.w3.org/1999/xlink" width="500" zoomAndPan="magnify" viewBox="0 0 375 374.999991" height="500" preserveAspectRatio="xMidYMid meet" version="1.0"><defs><filter x="0%" y="0%" width="100%" height="100%" id="340953527b"><feColorMatrix values="0 0 0 0 1 0 0 0 0 1 0 0 0 0 1 0 0 0 1 0" color-interpolation-filters="sRGB"/></filter><mask id="6c8ef55def"><g filter="url(#340953527b)"><rect x="-37.5" width="450" fill="#000000" y="-37.499999" height="449.999989" fill-opacity="0.4"/></g></mask><clipPath id="a468fbc5d3"><path d="M 2.914062 1.195312 L 202.414062 1.195312 L 202.414062 43.945312 L 2.914062 43.945312 Z M 2.914062 1.195312 " clip-rule="nonzero"/></clipPath><clipPath id="754857fbe6"><rect x="0" width="206" y="0" height="45"/></clipPath></defs><g mask="url(#6c8ef55def)"><g transform="matrix(1, 0, 0, 1, 80, 165)"><g clip-path="url(#754857fbe6)"><g clip-path="url(#a468fbc5d3)"><path fill="#ff5470" d="M 166.675781 8.785156 C 169.628906 8.636719 172.566406 8.410156 175.515625 8.230469 C 181.425781 7.902344 187.277344 7.363281 193.152344 6.914062 C 192.867188 8.421875 192.597656 9.988281 193.449219 11.285156 C 193.449219 11.285156 194.359375 11.167969 195.484375 10.949219 C 196.613281 10.746094 197.964844 10.5 198.867188 10.335938 C 206.503906 12.5625 205.453125 17.796875 202.101562 22.007812 C 201.230469 22.898438 200.246094 23.902344 199.125 24.929688 C 198.183594 24.949219 197.242188 24.96875 196.308594 24.992188 C 192.0625 25.105469 187.875 25.3125 183.65625 25.667969 C 179.460938 25.921875 175.25 26.261719 170.980469 26.640625 C 162.457031 27.304688 159.933594 28.054688 150.722656 28.167969 C 137.800781 27.964844 163.554688 27.164062 150.722656 28.167969 C 165.960938 27.632812 141.1875 29.261719 156.691406 28.417969 C 160.574219 28.222656 158.230469 28.027344 162.085938 27.835938 C 165.949219 27.695312 169.796875 27.554688 173.621094 27.414062 C 177.460938 27.277344 181.261719 27.261719 185.070312 27.203125 C 188.890625 27.113281 192.667969 27.140625 196.460938 27.175781 C 193.601562 29.324219 190.140625 31.140625 185.941406 31.75 C 175.933594 32.402344 166.0625 33.046875 156.273438 33.6875 C 156.230469 32.972656 148.625 34.277344 141.898438 34.710938 C 135.175781 35.09375 128.554688 33.773438 121.886719 33.925781 C 108.546875 34.28125 81.992188 38.410156 81.808594 38.882812 C 81.742188 38.890625 81.675781 38.894531 81.613281 38.902344 C 81.675781 38.894531 81.742188 38.890625 81.808594 38.882812 C 81.644531 39.300781 81.769531 39.605469 83.480469 39.488281 C 81.769531 39.605469 81.644531 39.300781 81.808594 38.882812 C 108.855469 36.28125 127.964844 35.046875 155.160156 33.769531 C 134.070312 35.179688 119.671875 36.839844 98.925781 38.5625 C 78.183594 40.269531 57.324219 42.003906 35.808594 43.320312 C 33.980469 43.433594 30.308594 43.65625 28.472656 43.765625 C 21.058594 42.066406 13.691406 41.78125 6.371094 42.199219 C 8.074219 38.53125 0.492188 31.824219 15.203125 32.402344 C 15.179688 31.691406 15.128906 30.261719 15.101562 29.550781 C 7.695312 28.195312 2.597656 25.085938 0.972656 21.886719 C 0.226562 20.296875 0.320312 18.640625 1.660156 17.167969 C 3.054688 15.683594 5.382812 14.390625 9.027344 13.46875 C 25.386719 9.671875 47.4375 11.195312 67.480469 8.417969 C 82.078125 6.726562 96.652344 4.96875 111.308594 5.261719 C 131.488281 5.84375 147.109375 3.277344 167.230469 3.914062 C 170.875 3.855469 175.820312 2.890625 180.324219 2.175781 C 184.808594 1.414062 188.808594 0.800781 190.707031 1.617188 C 193.375 2.269531 193.628906 3.765625 193.398438 5.503906 C 187.457031 6.214844 181.554688 7.03125 175.597656 7.597656 C 172.625 7.898438 169.667969 8.238281 166.699219 8.496094 C 163.730469 8.742188 160.769531 8.984375 157.816406 9.226562 " fill-opacity="1" fill-rule="nonzero"/></g></g></g></g></svg>