<svg xmlns="http://www.w3.org/2000/svg" xmlns:xlink="http://www.w3.org/1999/xlink" width="500" zoomAndPan="magnify" viewBox="0 0 375 374.999991" height="500" preserveAspectRatio="xMidYMid meet" version="1.0"><defs><filter x="0%" y="0%" width="100%" height="100%" id="d685f93a29"><feColorMatrix values="0 0 0 0 1 0 0 0 0 1 0 0 0 0 1 0 0 0 1 0" color-interpolation-filters="sRGB"/></filter><mask id="71099f323d"><g filter="url(#d685f93a29)"><rect x="-37.5" width="450" fill="#000000" y="-37.499999" height="449.999989" fill-opacity="0.4"/></g></mask><clipPath id="64e4ea0f0c"><path d="M 3.546875 1.148438 L 259.296875 1.148438 L 259.296875 55.898438 L 3.546875 55.898438 Z M 3.546875 1.148438 " clip-rule="nonzero"/></clipPath><clipPath id="fb4f5729b2"><rect x="0" width="264" y="0" height="57"/></clipPath></defs><g mask="url(#71099f323d)"><g transform="matrix(1, 0, 0, 1, 56, 159)"><g clip-path="url(#fb4f5729b2)"><g clip-path="url(#64e4ea0f0c)"><path fill="#fde24f" d="M 213.789062 10.890625 C 217.582031 10.699219 221.359375 10.410156 225.140625 10.175781 C 232.730469 9.761719 240.242188 9.066406 247.789062 8.488281 C 247.417969 10.421875 247.074219 12.433594 248.164062 14.101562 C 248.164062 14.101562 249.332031 13.949219 250.777344 13.667969 C 252.226562 13.40625 253.964844 13.09375 255.121094 12.882812 C 264.929688 15.742188 263.578125 22.460938 259.273438 27.871094 C 258.15625 29.011719 256.890625 30.300781 255.453125 31.617188 C 254.246094 31.644531 253.035156 31.671875 251.835938 31.699219 C 246.382812 31.847656 241.011719 32.109375 235.59375 32.566406 C 230.207031 32.890625 224.796875 33.332031 219.320312 33.816406 C 208.378906 34.667969 205.136719 35.628906 193.3125 35.777344 C 176.71875 35.515625 209.789062 34.488281 193.3125 35.777344 C 212.875 35.089844 181.070312 37.183594 200.972656 36.097656 C 205.957031 35.847656 202.949219 35.597656 207.898438 35.351562 C 212.859375 35.167969 217.800781 34.988281 222.710938 34.8125 C 227.640625 34.632812 232.519531 34.613281 237.410156 34.535156 C 242.316406 34.421875 247.164062 34.457031 252.03125 34.503906 C 248.363281 37.257812 243.917969 39.59375 238.527344 40.371094 C 225.675781 41.214844 213.003906 42.042969 200.4375 42.863281 C 200.378906 41.941406 190.617188 43.621094 181.980469 44.175781 C 173.351562 44.667969 164.847656 42.972656 156.289062 43.171875 C 139.164062 43.625 105.070312 48.925781 104.832031 49.535156 C 104.746094 49.542969 104.664062 49.550781 104.582031 49.558594 C 104.664062 49.550781 104.746094 49.542969 104.832031 49.535156 C 104.621094 50.070312 104.78125 50.460938 106.980469 50.308594 C 104.78125 50.460938 104.621094 50.070312 104.832031 49.535156 C 139.558594 46.191406 164.09375 44.605469 199.007812 42.96875 C 171.929688 44.777344 153.445312 46.910156 126.808594 49.121094 C 100.179688 51.316406 73.398438 53.539062 45.777344 55.230469 C 43.425781 55.375 38.714844 55.660156 36.359375 55.804688 C 26.839844 53.621094 17.378906 53.257812 7.980469 53.792969 C 10.167969 49.078125 0.433594 40.46875 19.324219 41.214844 C 19.289062 40.296875 19.222656 38.464844 19.191406 37.550781 C 9.683594 35.8125 3.136719 31.820312 1.054688 27.710938 C 0.09375 25.667969 0.214844 23.542969 1.9375 21.652344 C 3.726562 19.746094 6.710938 18.089844 11.394531 16.902344 C 32.398438 12.03125 60.707031 13.984375 86.441406 10.417969 C 105.179688 8.25 123.890625 5.992188 142.710938 6.371094 C 168.617188 7.117188 188.671875 3.820312 214.503906 4.640625 C 219.1875 4.5625 225.53125 3.324219 231.316406 2.40625 C 237.074219 1.425781 242.210938 0.640625 244.644531 1.691406 C 248.070312 2.527344 248.398438 4.445312 248.101562 6.675781 C 240.476562 7.59375 232.894531 8.640625 225.246094 9.367188 C 221.429688 9.753906 217.632812 10.191406 213.820312 10.519531 C 210.011719 10.835938 206.207031 11.148438 202.417969 11.460938 " fill-opacity="1" fill-rule="nonzero"/></g></g></g></g></svg>