<svg xmlns="http://www.w3.org/2000/svg" xmlns:xlink="http://www.w3.org/1999/xlink" width="500" zoomAndPan="magnify" viewBox="0 0 375 374.999991" height="500" preserveAspectRatio="xMidYMid meet" version="1.0"><defs><filter x="0%" y="0%" width="100%" height="100%" id="bcba260500"><feColorMatrix values="0 0 0 0 1 0 0 0 0 1 0 0 0 0 1 0 0 0 1 0" color-interpolation-filters="sRGB"/></filter><mask id="94b21380c5"><g filter="url(#bcba260500)"><rect x="-37.5" width="450" fill="#000000" y="-37.499999" height="449.999989" fill-opacity="0.4"/></g></mask><clipPath id="a23d4377ed"><path d="M 2.722656 1.019531 L 166.222656 1.019531 L 166.222656 36 L 2.722656 36 Z M 2.722656 1.019531 " clip-rule="nonzero"/></clipPath><clipPath id="dae917224d"><rect x="0" width="169" y="0" height="37"/></clipPath></defs><g mask="url(#94b21380c5)"><g transform="matrix(1, 0, 0, 1, 103, 169)"><g clip-path="url(#dae917224d)"><g clip-path="url(#a23d4377ed)"><path fill="#fde24f" d="M 137.085938 7.242188 C 139.511719 7.121094 141.921875 6.9375 144.339844 6.789062 C 149.191406 6.523438 153.988281 6.078125 158.8125 5.707031 C 158.578125 6.945312 158.355469 8.230469 159.054688 9.296875 C 159.054688 9.296875 159.800781 9.199219 160.722656 9.019531 C 161.648438 8.851562 162.757812 8.652344 163.5 8.519531 C 169.765625 10.34375 168.902344 14.636719 166.152344 18.09375 C 165.4375 18.824219 164.628906 19.648438 163.710938 20.492188 C 162.9375 20.507812 162.164062 20.523438 161.398438 20.542969 C 157.914062 20.636719 154.480469 20.804688 151.019531 21.09375 C 147.574219 21.304688 144.121094 21.585938 140.617188 21.894531 C 133.625 22.4375 131.554688 23.054688 124 23.148438 C 113.394531 22.980469 134.527344 22.324219 124 23.148438 C 136.5 22.710938 116.175781 24.046875 128.894531 23.351562 C 132.078125 23.191406 130.15625 23.035156 133.320312 22.875 C 136.492188 22.761719 139.648438 22.644531 142.785156 22.53125 C 145.9375 22.417969 149.054688 22.40625 152.179688 22.355469 C 155.316406 22.28125 158.414062 22.304688 161.523438 22.335938 C 159.179688 24.09375 156.339844 25.585938 152.894531 26.085938 C 144.683594 26.621094 136.582031 27.152344 128.550781 27.679688 C 128.515625 27.089844 122.273438 28.160156 116.757812 28.515625 C 111.242188 28.828125 105.808594 27.746094 100.335938 27.875 C 89.394531 28.164062 67.605469 31.550781 67.453125 31.941406 C 67.398438 31.945312 67.34375 31.949219 67.292969 31.953125 C 67.34375 31.949219 67.398438 31.945312 67.453125 31.941406 C 67.316406 32.28125 67.421875 32.535156 68.824219 32.433594 C 67.421875 32.535156 67.316406 32.285156 67.453125 31.941406 C 89.644531 29.804688 105.324219 28.789062 127.636719 27.746094 C 110.332031 28.902344 98.519531 30.265625 81.496094 31.675781 C 64.480469 33.078125 47.363281 34.5 29.710938 35.582031 C 28.210938 35.671875 25.199219 35.855469 23.691406 35.945312 C 17.609375 34.550781 11.5625 34.320312 5.558594 34.660156 C 6.957031 31.648438 0.734375 26.148438 12.804688 26.621094 C 12.785156 26.039062 12.742188 24.867188 12.722656 24.28125 C 6.644531 23.171875 2.460938 20.621094 1.128906 17.992188 C 0.515625 16.6875 0.59375 15.328125 1.695312 14.121094 C 2.839844 12.902344 4.746094 11.84375 7.738281 11.085938 C 21.160156 7.972656 39.253906 9.222656 55.699219 6.941406 C 67.671875 5.554688 79.632812 4.113281 91.660156 4.355469 C 108.214844 4.832031 121.03125 2.722656 137.542969 3.25 C 140.535156 3.199219 144.589844 2.40625 148.285156 1.820312 C 151.964844 1.195312 155.246094 0.691406 156.804688 1.363281 C 158.992188 1.898438 159.203125 3.125 159.011719 4.550781 C 154.140625 5.136719 149.292969 5.808594 144.40625 6.269531 C 141.96875 6.519531 139.542969 6.796875 137.105469 7.007812 C 134.667969 7.207031 132.238281 7.40625 129.816406 7.609375 " fill-opacity="1" fill-rule="nonzero"/></g></g></g></g></svg>