<svg xmlns="http://www.w3.org/2000/svg" xmlns:xlink="http://www.w3.org/1999/xlink" width="500" zoomAndPan="magnify" viewBox="0 0 375 374.999991" height="500" preserveAspectRatio="xMidYMid meet" version="1.0"><defs><clipPath id="1fcbd507a9"><path d="M 59.546875 160.148438 L 315.296875 160.148438 L 315.296875 214.898438 L 59.546875 214.898438 Z M 59.546875 160.148438 " clip-rule="nonzero"/></clipPath></defs><g clip-path="url(#1fcbd507a9)"><path fill="#00ebc7" d="M 269.789062 169.890625 C 273.582031 169.699219 277.359375 169.410156 281.140625 169.175781 C 288.730469 168.761719 296.242188 168.066406 303.789062 167.488281 C 303.417969 169.421875 303.074219 171.433594 304.164062 173.101562 C 304.164062 173.101562 305.332031 172.949219 306.777344 172.667969 C 308.226562 172.40625 309.964844 172.09375 311.121094 171.882812 C 320.929688 174.742188 319.578125 181.460938 315.273438 186.871094 C 314.15625 188.011719 312.890625 189.300781 311.453125 190.617188 C 310.246094 190.644531 309.035156 190.671875 307.835938 190.699219 C 302.382812 190.847656 297.011719 191.109375 291.59375 191.566406 C 286.207031 191.890625 280.796875 192.332031 275.320312 192.816406 C 264.378906 193.667969 261.136719 194.628906 249.3125 194.777344 C 232.71875 194.515625 265.789062 193.488281 249.3125 194.777344 C 268.875 194.089844 237.070312 196.183594 256.972656 195.097656 C 261.957031 194.847656 258.949219 194.597656 263.898438 194.351562 C 268.859375 194.167969 273.800781 193.988281 278.710938 193.8125 C 283.640625 193.632812 288.519531 193.613281 293.410156 193.535156 C 298.316406 193.421875 303.164062 193.457031 308.03125 193.503906 C 304.363281 196.257812 299.917969 198.59375 294.527344 199.371094 C 281.675781 200.214844 269.003906 201.042969 256.4375 201.863281 C 256.378906 200.941406 246.617188 202.621094 237.980469 203.175781 C 229.351562 203.667969 220.847656 201.972656 212.289062 202.171875 C 195.164062 202.625 161.070312 207.925781 160.832031 208.535156 C 160.746094 208.542969 160.664062 208.550781 160.582031 208.558594 C 160.664062 208.550781 160.746094 208.542969 160.832031 208.535156 C 160.621094 209.070312 160.78125 209.460938 162.980469 209.308594 C 160.78125 209.460938 160.621094 209.070312 160.832031 208.535156 C 195.558594 205.191406 220.09375 203.605469 255.007812 201.96875 C 227.929688 203.777344 209.445312 205.910156 182.808594 208.121094 C 156.179688 210.316406 129.398438 212.539062 101.777344 214.230469 C 99.425781 214.375 94.714844 214.660156 92.359375 214.804688 C 82.839844 212.621094 73.378906 212.257812 63.980469 212.792969 C 66.167969 208.078125 56.433594 199.46875 75.324219 200.214844 C 75.289062 199.296875 75.222656 197.464844 75.191406 196.550781 C 65.683594 194.8125 59.136719 190.820312 57.054688 186.710938 C 56.09375 184.667969 56.214844 182.542969 57.9375 180.652344 C 59.726562 178.746094 62.710938 177.089844 67.394531 175.902344 C 88.398438 171.03125 116.707031 172.984375 142.441406 169.417969 C 161.179688 167.25 179.890625 164.992188 198.710938 165.371094 C 224.617188 166.117188 244.671875 162.820312 270.503906 163.640625 C 275.1875 163.5625 281.53125 162.324219 287.316406 161.40625 C 293.074219 160.425781 298.210938 159.640625 300.644531 160.691406 C 304.070312 161.527344 304.398438 163.445312 304.101562 165.675781 C 296.476562 166.59375 288.894531 167.640625 281.246094 168.367188 C 277.429688 168.753906 273.632812 169.191406 269.820312 169.519531 C 266.011719 169.835938 262.207031 170.148438 258.417969 170.460938 " fill-opacity="1" fill-rule="nonzero"/></g></svg>