<svg xmlns="http://www.w3.org/2000/svg" xmlns:xlink="http://www.w3.org/1999/xlink" width="500" zoomAndPan="magnify" viewBox="0 0 375 374.999991" height="500" preserveAspectRatio="xMidYMid meet" version="1.0"><defs><clipPath id="7152a035a7"><path d="M 25.691406 140.671875 L 337.691406 140.671875 L 337.691406 207.421875 L 25.691406 207.421875 Z M 25.691406 140.671875 " clip-rule="nonzero"/></clipPath></defs><g clip-path="url(#7152a035a7)"><path fill="#00ebc7" d="M 281.859375 152.539062 C 286.480469 152.304688 291.078125 151.953125 295.6875 151.671875 C 304.933594 151.164062 314.085938 150.316406 323.28125 149.613281 C 322.832031 151.96875 322.410156 154.421875 323.742188 156.449219 C 323.742188 156.449219 325.164062 156.265625 326.925781 155.925781 C 328.6875 155.605469 330.804688 155.226562 332.21875 154.96875 C 344.164062 158.449219 342.519531 166.636719 337.277344 173.226562 C 335.914062 174.621094 334.375 176.191406 332.621094 177.796875 C 331.148438 177.828125 329.671875 177.859375 328.214844 177.890625 C 321.570312 178.074219 315.023438 178.394531 308.421875 178.949219 C 301.859375 179.347656 295.269531 179.882812 288.59375 180.472656 C 275.261719 181.511719 271.316406 182.679688 256.90625 182.863281 C 236.691406 182.546875 276.980469 181.289062 256.90625 182.863281 C 280.742188 182.027344 241.992188 184.574219 266.242188 183.25 C 272.3125 182.945312 268.648438 182.644531 274.679688 182.339844 C 280.722656 182.121094 286.742188 181.902344 292.726562 181.683594 C 298.730469 181.46875 304.675781 181.445312 310.636719 181.351562 C 316.613281 181.210938 322.519531 181.253906 328.453125 181.308594 C 323.980469 184.667969 318.566406 187.511719 312 188.460938 C 296.339844 189.488281 280.898438 190.496094 265.589844 191.496094 C 265.519531 190.375 253.621094 192.421875 243.101562 193.09375 C 232.585938 193.695312 222.226562 191.628906 211.796875 191.871094 C 190.929688 192.421875 149.390625 198.882812 149.101562 199.625 C 148.996094 199.632812 148.894531 199.644531 148.796875 199.652344 C 148.894531 199.644531 148.996094 199.632812 149.101562 199.625 C 148.84375 200.277344 149.039062 200.753906 151.71875 200.566406 C 149.039062 200.753906 148.84375 200.277344 149.101562 199.625 C 191.410156 195.550781 221.304688 193.621094 263.847656 191.628906 C 230.855469 193.832031 208.332031 196.429688 175.878906 199.121094 C 143.433594 201.792969 110.800781 204.503906 77.148438 206.566406 C 74.285156 206.738281 68.542969 207.089844 65.671875 207.261719 C 54.074219 204.601562 42.546875 204.160156 31.097656 204.8125 C 33.761719 199.070312 21.902344 188.578125 44.914062 189.484375 C 44.875 188.371094 44.792969 186.140625 44.753906 185.023438 C 33.167969 182.90625 25.195312 178.042969 22.652344 173.035156 C 21.484375 170.546875 21.632812 167.957031 23.730469 165.652344 C 25.910156 163.332031 29.550781 161.3125 35.253906 159.867188 C 60.84375 153.929688 95.335938 156.3125 126.691406 151.964844 C 149.523438 149.324219 172.324219 146.574219 195.253906 147.03125 C 226.816406 147.941406 251.253906 143.921875 282.726562 144.921875 C 288.429688 144.832031 296.164062 143.320312 303.210938 142.203125 C 310.226562 141.007812 316.484375 140.050781 319.453125 141.332031 C 323.625 142.351562 324.027344 144.6875 323.660156 147.40625 C 314.371094 148.523438 305.132812 149.800781 295.816406 150.683594 C 291.164062 151.15625 286.539062 151.6875 281.894531 152.089844 C 277.25 152.472656 272.617188 152.851562 268 153.234375 " fill-opacity="1" fill-rule="nonzero"/></g></svg>