<svg xmlns="http://www.w3.org/2000/svg" version="1.1" xmlns:xlink="http://www.w3.org/1999/xlink" viewBox="0 0 2400 800" style="overflow: hidden; display: block;" width="2400" height="800"><defs></defs><g id="two-0" transform="matrix(1 0 0 1 0 0)" opacity="1"></g><path d="M 1409.713296689028 315.9983116556303 Q 1409.713296689028 315.9983116556303 1385.8665576041026 327.9062917633669 1362.0198185191769 339.81427187110353 1332.589484537661 320.78346660676084 1303.1591505561455 301.75266134241815 1268.8711425468582 292.01875188239524 1234.5831345375707 282.28484242237226 1200.1742933789676 281.18604509175645 1165.7654522203645 280.08724776114065 1133.908916387381 286.1831927109671 1102.0523805543974 292.27913766079354 1071.8714381384382 306.1816471211093 1041.690495722479 320.084156581425 1015.5166644968301 342.80527954344404 989.3428332711811 365.526402505463 970.280875578695 396.9494077555252 951.218917886209 428.3724130055874 942.4927648244206 460.44724303785017 933.7666117626322 492.5220730701129 935.2874805975032 526.0675054699591 936.808349432374 559.6129378698053 959.4182038798501 588.4838772843689 982.0280583273263 617.3548166989326 1011.4836219407672 631.6294675501532 1040.939185554208 645.9041184013738 1076.0826283770612 653.1371776113901 1111.2260711999145 660.3702368214065 1144.2027995495023 663.3876794480464 1177.1795278990903 666.4051220746863 1211.0638829322916 661.5414161033899 1244.9482379654928 656.6777101320935 1277.9436386765374 640.7731291253567 1310.9390393875822 624.8685481186199 1335.7261144394784 600.3502897441869 1360.5131894913743 575.8320313697538 1375.1499567835676 540.1398728860011 1389.7867240757612 504.4477144022484 1394.9649183762754 470.31000618619294 1400.1431126767898 436.17229797013744 1397.718819407488 401.17663381074897 1395.294526138186 366.18096965136056 1381.9437812977565 334.52970685192923 1368.593036457327 302.8784440524979 1338.7433560496188 290.3644812969355 1308.8936756419107 277.85051854137305 1273.9976362842308 277.1750375878373 1239.1015969265509 276.49955663430165 1205.7216246929788 281.6675710640351 1172.341652459407 286.8355854937686 1140.788479404771 301.75226573971037 1109.2353063501346 316.66894598565216 1081.998708421791 339.4301368679219 1054.7621104934476 362.19132775019153 1034.9705715475955 390.70101055774734 1015.1790326017434 419.21069336530314 1009.9538546566225 455.11644926811834 1004.7286767115016 491.0222051709336 1013.5427516626685 524.5157680568996 1022.3568266138354 558.0093309428654 1045.9897423924576 582.8989363590467 1069.6226581710798 607.7885417752282 1107.1951239166124 616.5984071005153 1144.7675896621447 625.4082724258022 1181.3330556084393 625.554147678524 1217.8985215547339 625.7000229312457 1249.9242568558666 618.0696142823538 1281.9499921569995 610.4392056334618 1304.817529447601 582.5193675463593 1327.6850667382025 554.5995294592568 1332.856764711456 521.7271072061305 1338.0284626847097 488.8546849530044 1335.6992788894531 456.7107121424273 1333.3700950941966 424.5667393318503 1322.0008377400736 393.13069223004914 1310.6315803859504 361.694645128248 1278.2925304122514 352.2567662346534 1245.9534804385526 342.8188873410588 1214.6046040887802 351.83450691052565 1183.2557277390079 360.8501264799924 1153.3964228675566 375.45479908098275 1123.5371179961053 390.05947168197315 1099.881708965948 415.01450921435077 1076.2262999357908 439.9695467467284 1076.0666170668992 474.16351503181716 1075.9069341980075 508.35748331690587 1095.4004987631824 534.5190234535573 1114.8940633283576 560.6805635902087 1146.27652395617 574.3397372541335 1177.6589845839826 587.9989109180582 1212.5249532133425 585.12192986459 1247.3909218427025 582.2449488111218 1266.6569627149918 552.4322105646492 1285.923003587281 522.6194723181765 1285.0608789765279 488.6809455942382 1284.1987543657747 454.74241887029996 1254.7019702491975 441.48787447022505 1225.2051861326204 428.2333300701501 1200.5629593880353 450.2752491362311 1175.9207326434503 472.31716820231213 1208.5524070961735 485.8158504626069 1241.1840815488968 499.3145327229016 1217.2048321203129 473.37486511980455 1193.2255826917292 447.43519751670743 1216.8828897334483 421.6180735826183 1240.5401967751675 395.8009496485291 1257.7521202377347 368.30060416852837 1274.964043700302 340.80025868852766 1278.2700932037683 308.45887422353326 1281.5761427072346 276.1174897585388 1255.935963917792 255.7338801807959 1230.2957851283493 235.35027060305302 1196.4722512935111 233.42584347994813 1162.648717458673 231.50141635684327 1128.61088171159 235.67074852378397 1094.573045964507 239.84008069072468 1064.5769942969434 253.10851882501362 1034.58094262938 266.37695695930256 1005.6803818866575 285.79118021421715 976.7798211439351 305.20540346913174 952.1561680229096 329.1626196122216 927.532514901884 353.11983575531144 913.0162601952196 382.91007331121114 898.5000054885552 412.70031086711083 894.4168642216093 447.88222452511854 890.3337229546635 483.06413818312626 894.00453218924 516.1342090240892 897.6753414238165 549.2042798650522 915.9791201442383 577.1687755499192 934.2828988646602 605.1332712347862 962.2553933981446 623.971851341428 990.2278879316291 642.8104314480697 1024.7017342029621 651.45633141704 1059.1755804742952 660.1022313860102 1092.4641420435455 663.606701615661 1125.7527036127958 667.1111718453119 1159.2609882314696 667.1766654494835 1192.7692728501434 667.2421590536551 1226.011483851436 662.0796535685295 1259.2536948527288 656.917148083404 1288.9110005244993 643.4156733328637 1318.5683061962695 629.9141985823233 1344.8376487146957 611.2314936975031 1371.106991233122 592.5487888126829 1391.2040694632417 564.5497137617117 1411.3011476933614 536.5506387107405 1417.8050720174658 503.5931353270257 1424.3089963415703 470.63563194331095 1426.1539020919247 438.3914224504446 1427.9988078422791 406.1472129575783 1418.8054930082722 373.38614395155616 1409.612178174265 340.625074945534 1388.9918421355542 315.4862722848529 1368.3715060968432 290.34746962417177 1341.0189543763988 273.20554912811485 1313.6664026559545 256.06362863205794 1282.2013294501667 248.4166028104513 1250.7362562443789 240.7695769888447 1218.2715955088333 238.98745550633828 1185.8069347732878 237.20533402383182 1152.1917786364984 236.33527777748458 1118.576622499709 235.46522153113736 1086.0623179645304 246.25568918661588 1053.5480134293518 257.0461568420944 1046.2556577311811 265.42061910161544 1038.9633020330102 273.79508136113645 1032.2352752097727 280.2716361883448 1025.5072483865351 286.74819101555323 1017.0633972976148 290.73736212647066 1008.6195462086944 294.7265332373881 999.3439442920613 295.8106533636626 990.0683423754283 296.8947734899371 980.9321476002751 294.9603349681678 971.7959528251221 293.0258964463985 963.7557271961286 288.27543550045687 955.7155015671351 283.52497455451527 949.6130588300703 276.45586569944123 943.5106160930055 269.38675684436726 939.9848836133285 260.73913764335066 936.4591511336516 252.09151844233403 935.8792740326877 242.77079690847103 935.2993969317238 233.450075374608 937.7260884950165 224.43213351292556 940.1527800583091 215.41419165124313 945.3319650385972 207.64321035516488 950.5111500188855 199.87222905908664 957.9005663815608 194.16183212165186 965.2899827442362 188.45143518421705 974.1159566455103 185.39950267217347 982.9419305467844 182.34757016012992 992.280380189363 182.2736402131205 1001.6188298319415 182.19971026611108 1010.4920170731352 185.11152336910334 1019.3652043143289 188.02333647209556 1026.844104107691 193.61602502456216 1034.323003901053 199.20871357702876 1039.6245734639801 206.8967216112 1044.9261430269075 214.58472964537125 1047.4953066266835 223.56312069063247 1050.0644702264594 232.5415117358937 1049.6322357559939 241.87024587974093 1049.2000012855283 251.19898002358815 1045.8116238079779 259.901336338614 1042.4232463304277 268.6036926536398 1036.4334898621369 275.768532136462 1030.443733393846 282.93337161928423 1022.479727018187 287.8105336847175 1014.5157206425279 292.6876957501507 1005.4112979293254 294.7665402424983 996.3068752161231 296.8453847348459 987.0152716267838 295.9082560869974 977.7236680374446 294.9711274391489 969.2177169205174 291.11614326791204 960.7117658035904 287.26115909667516 953.8820424863708 280.8919372623954 947.0523191691511 274.52271542811565 942.6138974858236 266.30611513815336 938.1754758024962 258.08951484819113 936.5930596749349 248.88581632187714 935.0106435473735 239.68211779556316 936.4499123618513 230.45495069814308 937.889181176329 221.22778360072297 942.1994431080399 212.9432347630322 946.5097050397508 204.65868592534142 946.5045198100543 204.66561994516786 946.4993345803579 204.67255396499428 955.0182084750795 194.07657535457702 963.5370823698012 183.48059674415973 992.3704149901585 161.85897930977995 1021.2037476105156 140.23736187540015 1057.4554309593218 130.21414944088298 1093.707114308128 120.19093700636581 1129.5168861776015 120.07302562489213 1165.3266580470747 119.95511424341842 1200.2777217810062 120.85186801553162 1235.2287855149375 121.74862178764482 1267.9821061327643 126.67490475147385 1300.7354267505914 131.60118771530287 1333.5057605250422 141.7201416804 1366.2760942994933 151.83909564549708 1394.3982725502074 168.24624301183027 1422.5204508009213 184.65339037816346 1448.3631743523254 206.91314044796277 1474.2058979037295 229.17289051776208 1492.5248993807836 255.7593067351177 1510.843900857838 282.3457229524733 1523.035835296777 314.19926114723006 1535.2277697357158 346.0527993419868 1539.6462610413664 378.53101759863273 1544.0647523470172 411.0092358552786 1542.1489227823256 443.1889019019566 1540.233093217634 475.3685679486347 1536.0931227167896 508.26873887776463 1531.9531522159452 541.1689098068946 1519.0197583034653 573.1667040966001 1506.0863643909854 605.1644983863057 1487.0197963639075 632.059671388902 1467.9532283368299 658.9548443914982 1443.633436214685 681.382780237968 1419.3136440925398 703.8107160844377 1391.0583758804441 720.6864389190139 1362.8031076683487 737.5621617535902 1329.4917808726264 752.0127363978065 1296.180454076904 766.463311042023 1262.1374693731113 773.3822221938071 1228.094484669319 780.3011333455912 1191.8047243298959 781.9702072842297 1155.5149639904728 783.639281222868 1121.5646729656619 782.2604378070963 1087.6143819408508 780.8815943913246 1055.728356926639 776.2365744852705 1023.8423319124271 771.5915545792163 989.7545453782345 762.56856271117 955.6667588440421 753.5455708431235 924.2289151820842 737.0544546353665 892.7910715201263 720.5633384276096 868.4234377813355 698.9750483821915 844.0558040425448 677.3867583367735 824.1074279839548 648.6199505359618 804.1590519253649 619.8531427351502 792.0394216336013 588.6130999087159 779.9197913418376 557.3730570822815 777.431941790792 525.2218705840313 774.9440922397464 493.0706840857811 777.5292640514062 458.65041668620324 780.1144358630662 424.2301492866254 787.0905466180252 391.916393754055 794.0666573729843 359.6026382214846 810.264251387106 328.4293327140924 826.4618454012276 297.25602720670025 849.43013441574 270.75206485049364 872.3984234302524 244.24810249428697 897.3268203186819 223.27903611001955 922.2552172071115 202.30996972575215 952.0108734352143 182.75700598645133 981.7665296633172 163.2040422471505 1014.2506205596615 148.3074007687232 1046.7347114560057 133.4107592902959 1079.9873717024022 125.82909123102078 1113.2400319487988 118.24742317174565 1146.5823667500276 117.30364024672251 1179.9247015512562 116.35985732169937 1213.9043377464375 118.74039724126024 1247.8839739416187 121.12093716082111 1279.196424124953 129.09128639496203 1310.5088743082874 137.06163562910297 1338.4216284038876 154.78107615879404 1366.3343824994874 172.5005166884851 1380.3554715507755 204.3978698318735 1394.3765606020636 236.29522297526188 1394.6757062288584 268.5003494421315 1394.9748518556532 300.7054759090011 1390.689201168472 333.40517649662735 1386.4035504812907 366.1048770842536 1373.369168050582 396.84150129004706 1360.3347856198732 427.5781254958405 1337.0611659200008 455.76777248363294 1313.7875462201284 483.95741947142534 1288.3274024980024 507.1086109634689 1262.867258775876 530.2598024555125 1230.6676712631338 546.1227527092448 1198.4680837503918 561.985702962977 1169.6031094524471 546.28718606088 1140.7381351545025 530.588669158783 1142.3074478067892 487.62850991839036 1143.8767604590762 444.6683506779977 1171.41816085997 418.7770479110303 1198.9595612608637 392.88574514406287 1238.2629434484024 397.0270098056785 1277.566325635941 401.1682744672942 1299.4750134342878 427.7938349223939 1321.3837012326346 454.4193953774935 1328.253266760115 487.4049484284315 1335.1228322875954 520.3905014793695 1317.8229555748637 556.3862018868108 1300.523078862132 592.381902294252 1266.4104427109016 608.0945167221649 1232.2978065596712 623.8071311500779 1194.6615436434267 623.1096891300879 1157.0252807271822 622.4122471100978 1126.451157298527 609.7590790514505 1095.8770338698719 597.105910992803 1074.1678988873678 572.8659558724187 1052.4587639048636 548.6260007520342 1049.7404391846017 512.329346259707 1047.0221144643394 476.03269176737984 1062.788888833887 444.6583941431734 1078.5556632034347 413.28409651896686 1103.8460768950629 386.6520636826956 1129.136490586691 360.02003084642433 1157.5747416631727 340.8736531876315 1186.0129927396545 321.7272755288386 1220.1760085001447 315.97220648990947 1254.3390242606351 310.2171374509804 1287.8806999406152 320.9044891956065 1321.422375620595 331.5918409402327 1345.11481026628 354.02500539174827 1368.8072449119654 376.4581698432638 1382.4023858969763 407.0433340994688 1395.9975268819871 437.62849835567374 1398.8595328703614 471.44128009210334 1401.7215388587358 505.25406182853294 1394.3913036576478 541.4989672953174 1387.0610684565595 577.7438727621018 1371.4941024743307 606.5383704122157 1355.927136492102 635.3328680623296 1331.0284068771148 656.2487875134539 1306.1296772621276 677.1647069645782 1273.8019486456847 688.5570228054867 1241.4742200292417 699.9493386463952 1205.9994467872561 699.9966556194535 1170.5246735452706 700.0439725925118 1133.9790722161888 690.1007200841282 1097.4334708871068 680.1574675757445 1067.3381578688377 661.1878538640814 1037.2428448505686 642.2182401524183 1013.9910444212499 614.2013675509493 990.7392439919311 586.1844949494803 976.4840302483228 555.0795467542454 962.2288165047145 523.9745985590105 959.2258637948362 488.00883378245135 956.2229110849579 452.0430690058922 966.6994017289421 419.7253236293296 977.1758923729262 387.40757825276694 1001.1729831701449 356.16700284594594 1025.1700739673636 324.92642743912495 1051.9912779438223 305.4092600113578 1078.812481920281 285.89209258359057 1111.4456324057514 270.6036384219026 1144.078782891222 255.31518426021458 1178.6619263015473 244.84678306073434 1213.2450697118725 234.3783818612541 1246.0887220687946 232.70355773705288 1278.9323744257165 231.02873361285165 1312.5034514406425 241.3023515608699 1346.0745284555685 251.5759695088882 1375.8397870205695 276.40972078928496 1405.6050455855707 301.2434720696818 1419.8207065383801 330.32340373638084 1434.0363674911896 359.4033354030799 1439.627350329467 392.10677114142834 1445.218333167744 424.81020687977684 1446.981898347729 457.817154946103 1448.745463527714 490.8241030124292 1444.9640917785537 525.7649586753878 1441.1827200293935 560.7058143383464 1427.2764677478556 596.8891198406709 1413.3702154663176 633.0724253429953 1385.1854819715054 664.0829288680692 1357.0007484766934 695.0934323931431 1324.9141245291748 709.8257259041553 1292.8275005816565 724.5580194151676 1259.1765405924896 730.6124414719108 1225.5255806033226 736.666863528654 1188.195499270283 737.3794990635313 1150.8654179372438 738.0921345984085 1115.244397249002 733.5013380002399 1079.6233765607603 728.9105414020712 1046.1302606154575 717.1130221637492 1012.6371446701547 705.3155029254272 983.6992423586528 681.8036932722608 954.7613400471507 658.2918836190945 934.9300908724872 626.7048190118046 915.0988416978237 595.1177544045146 904.8273426815899 558.1996506896617 894.5558436653561 521.2815469748086 893.9259690274532 485.2547449584103 893.2960943895503 449.22794294201196 902.5502720668242 411.04313183615636 911.8044497440982 372.8583207303007 928.1294344706562 345.12738395467795 944.4544191972143 317.3964471790552 967.7127880044729 291.86387274699484 990.9711568117317 266.33129831493454 1019.4924040875273 243.7734209555004 1048.0136513633229 221.21554359606625 1079.6968114874294 204.50347206469138 1111.3799716115361 187.79140053331653 1147.9779674280824 178.34554257646553 1184.5759632446286 168.89968461961453 1220.8410588953825 165.61929848295688 1257.1061545461364 162.33891234629925 1292.577684522042 164.61904804645167 1328.0492144979476 166.89918374660405 1359.2424727471694 176.13835199155022 1390.4357309963912 185.37752023649642 1417.9485806210841 203.67433492140432 1445.4614302457774 221.97114960631222 1464.0611412216085 250.6485462095938 1482.6608521974395 279.3259428128754 1493.398774802692 313.1717032105597 1504.1366974079447 347.01746360824404 1507.3573400331327 386.21737971468275 1510.5779826583207 425.41729582112146 1507.3882930159139 462.57885660686424 1504.1986033735068 499.740417392607 1494.374475452455 535.3478663518065 1484.550347531403 570.9553153110058 1468.2366319470484 605.0601343462226 1451.9229163626937 639.1649533814393 1429.3239177313837 665.4180392570861 1406.7249191000737 691.6711251327328 1375.4243077261538 713.089727750181 1344.1236963522338 734.5083303676295 1309.6314841528865 748.9509032165613 1275.1392719535393 763.3934760654932 1239.0370946934352 769.9015792579396 1202.934917433331 776.409682450386 1164.8012117205017 774.9533484885096 1126.6675060076725 773.4970145266334 1092.8312562187016 768.5607492908795 1058.9950064297304 763.6244840551255 1023.5187021969275 754.184760492706 988.0423979641246 744.7450369302865 957.8444181086631 729.4132343379937 927.6464382532017 714.0814317457009 897.4426980584734 686.7870396151351 867.2389578637451 659.4926474845693 849.1550178429225 624.6267885407253 831.0710778220997 589.7609295968815 826.2879124905905 556.1781498814995 821.5047471590813 522.5953701661175 825.8289526704342 488.3128204431424 830.1531581817871 454.0302707201674 840.4283660956746 420.1614088916124 850.7035740095621 386.29254706305744 868.3062381155271 353.9666325957263 885.9089022214922 321.6407181283952 911.8563742393544 292.59194097951115 937.8038462572167 263.5431638306271 970.8955276102477 240.22358429233074 1003.9872089632786 216.90400475403436 1037.934478827708 202.90911589369065 1071.8817486921373 188.91422703334695 1107.3145963969632 181.87698846440705 1142.7474441017894 174.83974989546715 1180.348527803787 174.40030157053752 1217.9496115057848 173.9608532456079 1255.2709056949325 180.8702875168413 1292.59219988408 187.77972178807474 1330.9431903135319 203.4614244523297 1369.294180742984 219.1431271165847 1402.0289725547748 244.02897204107555 1434.7637643665655 268.9148169655664 1422.2456928231436 292.4495856627806 1409.727621279722 315.9843543599947 1409.720458984375 315.9913330078125 Z" fill="#00ebc7"></path></svg>