<svg xmlns="http://www.w3.org/2000/svg" xmlns:xlink="http://www.w3.org/1999/xlink" width="500" zoomAndPan="magnify" viewBox="0 0 375 374.999991" height="500" preserveAspectRatio="xMidYMid meet" version="1.0"><defs><clipPath id="77d61732af"><path d="M 65.1875 98.667969 L 309 98.667969 L 309 276.417969 L 65.1875 276.417969 Z M 65.1875 98.667969 " clip-rule="nonzero"/></clipPath><clipPath id="a9bb3b74af"><path d="M 38.996094 38.996094 L 335.996094 38.996094 L 335.996094 335.996094 L 38.996094 335.996094 Z M 38.996094 38.996094 " clip-rule="nonzero"/></clipPath></defs><g clip-path="url(#77d61732af)"><path fill="#00ebc7" d="M 307.28125 246.808594 C 304.757812 243.792969 300.257812 243.296875 297.238281 246.066406 C 291.203125 251.0625 284.722656 255.070312 277.453125 257.839844 C 270.179688 260.609375 262.414062 262.09375 254.648438 262.09375 C 250.195312 262.09375 245.792969 261.648438 241.488281 260.757812 L 241.488281 114.828125 C 245.742188 113.941406 250.144531 113.445312 254.648438 113.445312 C 270.179688 113.445312 284.972656 118.9375 296.992188 129.472656 C 300.007812 131.996094 304.511719 131.746094 307.28125 128.730469 C 309.804688 125.464844 309.308594 120.964844 306.292969 118.441406 C 299.265625 112.40625 291.253906 107.65625 282.496094 104.390625 C 273.496094 100.878906 264.195312 99.148438 254.695312 99.148438 C 243.417969 99.148438 232.386719 101.425781 222.148438 106.171875 C 212.105469 110.675781 203.347656 117.203125 195.582031 125.21875 C 180.445312 141.542969 171.988281 162.914062 171.589844 185.765625 C 159.71875 176.863281 104.117188 137.140625 93.628906 129.71875 C 95.363281 127.691406 97.390625 125.710938 99.664062 123.980469 C 108.421875 116.957031 120.195312 113.199219 132.511719 113.445312 C 141.019531 113.542969 148.886719 115.867188 155.515625 119.875 C 157.9375 121.308594 160.957031 121.308594 163.28125 119.726562 L 163.675781 119.429688 C 167.78125 116.5625 167.585938 110.425781 163.328125 107.804688 C 154.425781 102.464844 144.039062 99.246094 132.859375 98.949219 C 117.078125 98.703125 102.039062 103.699219 90.515625 113 C 78.492188 122.496094 71.46875 135.804688 70.480469 150.59375 C 69.984375 159.101562 71.46875 166.621094 74.980469 173.398438 C 78 178.890625 82.003906 183.6875 87.742188 188.191406 C 95.757812 194.472656 159.421875 239.785156 166.695312 245.078125 C 164.960938 247.105469 162.6875 249.085938 160.410156 250.816406 C 150.863281 258.089844 138.347656 262.09375 126.082031 261.847656 C 115.542969 261.601562 105.058594 258.089844 96.5 252.054688 C 88.238281 246.019531 82.203125 238.25 79.976562 229.742188 C 78.988281 225.734375 75.226562 223.460938 71.222656 224.5 C 67.460938 225.488281 65.1875 229.496094 66.226562 233.253906 C 69.242188 245.027344 77.257812 255.8125 88.289062 263.828125 C 99.320312 271.34375 112.578125 275.847656 125.636719 276.09375 L 127.121094 276.09375 C 134.640625 276.09375 141.910156 274.859375 148.933594 272.582031 C 156.453125 270.304688 163.230469 266.792969 168.96875 262.292969 C 177.28125 255.960938 183.414062 248.09375 186.976562 239.339844 C 189.546875 243.199219 192.417969 246.808594 195.535156 250.222656 C 203.300781 258.238281 212.054688 264.765625 222.097656 269.269531 C 232.386719 273.769531 243.417969 276.292969 254.648438 276.292969 C 264.195312 276.292969 273.691406 274.5625 282.695312 271.046875 C 291.203125 267.785156 299.21875 263.035156 306.488281 256.753906 C 309.507812 254.328125 309.753906 249.777344 307.28125 246.808594 Z M 175.945312 223.757812 C 175.695312 226.773438 175.203125 229.792969 174.214844 232.511719 C 163.675781 225.242188 104.066406 182.648438 96.546875 176.613281 C 87.742188 169.886719 84.28125 162.121094 84.777344 151.335938 C 85.023438 148.320312 85.515625 145.300781 86.507812 142.332031 C 100.308594 152.128906 156.898438 192.691406 164.171875 198.480469 C 172.976562 205.207031 176.488281 212.972656 175.945312 223.757812 Z M 227.191406 255.910156 C 224.472656 254.625 221.800781 253.140625 219.226562 251.460938 C 219.179688 251.410156 219.078125 251.359375 219.03125 251.3125 C 214.378906 248.292969 210.027344 244.683594 206.070312 240.476562 C 204.585938 238.449219 202.804688 236.71875 201.570312 234.691406 C 197.859375 229.792969 195.089844 224.894531 193.109375 220.589844 L 193.058594 220.691406 C 192.167969 218.8125 191.378906 216.832031 190.6875 214.902344 C 190.488281 214.40625 190.289062 213.914062 190.140625 213.417969 C 190.042969 213.121094 189.945312 212.824219 189.84375 212.527344 C 188.558594 208.820312 188.0625 206.445312 188.0625 206.445312 L 188.113281 206.492188 C 186.628906 200.410156 185.835938 194.125 185.835938 187.597656 C 185.835938 173.992188 189.300781 160.835938 195.683594 149.359375 C 195.683594 149.359375 195.683594 149.359375 195.683594 149.308594 C 198.550781 144.113281 202.0625 139.316406 206.121094 134.914062 C 207.257812 133.777344 208.394531 132.6875 209.53125 131.648438 C 215.714844 125.710938 221.898438 121.902344 227.242188 119.480469 Z M 227.191406 255.910156 " fill-opacity="1" fill-rule="nonzero"/></g><g clip-path="url(#a9bb3b74af)"><path fill="#00ebc7" d="M 187.496094 335.996094 C 105.453125 335.996094 38.996094 269.078125 38.996094 187.496094 C 38.996094 105.910156 105.453125 38.996094 187.496094 38.996094 C 269.535156 38.996094 335.996094 105.453125 335.996094 187.496094 C 335.996094 269.535156 269.078125 335.996094 187.496094 335.996094 Z M 187.496094 48.160156 C 110.496094 48.160156 48.160156 110.496094 48.160156 187.496094 C 48.160156 264.496094 110.496094 326.828125 187.496094 326.828125 C 264.496094 326.828125 326.828125 264.496094 326.828125 187.496094 C 326.828125 110.496094 264.035156 48.160156 187.496094 48.160156 Z M 187.496094 48.160156 " fill-opacity="1" fill-rule="nonzero"/></g></svg>