<svg xmlns="http://www.w3.org/2000/svg" xmlns:xlink="http://www.w3.org/1999/xlink" width="500" zoomAndPan="magnify" viewBox="0 0 375 374.999991" height="500" preserveAspectRatio="xMidYMid meet" version="1.0"><defs><g/><clipPath id="95878b96b1"><path d="M 186.507812 258.480469 L 188.699219 258.480469 L 188.699219 278.800781 L 186.507812 278.800781 Z M 186.507812 258.480469 " clip-rule="nonzero"/></clipPath><clipPath id="f8369d6b2d"><path d="M 186.507812 96.191406 L 188.699219 96.191406 L 188.699219 116.515625 L 186.507812 116.515625 Z M 186.507812 96.191406 " clip-rule="nonzero"/></clipPath><clipPath id="6198b66fdc"><path d="M 96.195312 186.503906 L 116.515625 186.503906 L 116.515625 188.695312 L 96.195312 188.695312 Z M 96.195312 186.503906 " clip-rule="nonzero"/></clipPath><clipPath id="6fb9be221b"><path d="M 258.480469 186.503906 L 278.804688 186.503906 L 278.804688 188.695312 L 258.480469 188.695312 Z M 258.480469 186.503906 " clip-rule="nonzero"/></clipPath><clipPath id="a9eece8c59"><path d="M 138 247 L 151 247 L 151 266 L 138 266 Z M 138 247 " clip-rule="nonzero"/></clipPath><clipPath id="22e7d491e7"><path d="M 150.988281 248.382812 L 140.246094 265.632812 L 138.386719 264.472656 L 149.128906 247.222656 Z M 150.988281 248.382812 " clip-rule="nonzero"/></clipPath><clipPath id="5bd38dc61c"><path d="M 224 109 L 237 109 L 237 128 L 224 128 Z M 224 109 " clip-rule="nonzero"/></clipPath><clipPath id="227e694f09"><path d="M 236.785156 110.628906 L 226.042969 127.878906 L 224.183594 126.71875 L 234.925781 109.46875 Z M 236.785156 110.628906 " clip-rule="nonzero"/></clipPath><clipPath id="d2e68800de"><path d="M 109 138 L 128 138 L 128 151 L 109 151 Z M 109 138 " clip-rule="nonzero"/></clipPath><clipPath id="3107781797"><path d="M 126.613281 150.988281 L 109.363281 140.242188 L 110.523438 138.382812 L 127.769531 149.128906 Z M 126.613281 150.988281 " clip-rule="nonzero"/></clipPath><clipPath id="12c24ce842"><path d="M 247 224 L 266 224 L 266 237 L 247 237 Z M 247 224 " clip-rule="nonzero"/></clipPath><clipPath id="60da03171a"><path d="M 264.367188 236.78125 L 247.117188 226.039062 L 248.277344 224.179688 L 265.527344 234.921875 Z M 264.367188 236.78125 " clip-rule="nonzero"/></clipPath><clipPath id="47b8b0b18c"><path d="M 107 221 L 127 221 L 127 234 L 107 234 Z M 107 221 " clip-rule="nonzero"/></clipPath><clipPath id="12c309126d"><path d="M 126.171875 223.261719 L 108.445312 233.199219 L 107.375 231.289062 L 125.101562 221.347656 Z M 126.171875 223.261719 " clip-rule="nonzero"/></clipPath><clipPath id="63de21e7f9"><path d="M 248 141 L 268 141 L 268 154 L 248 154 Z M 248 141 " clip-rule="nonzero"/></clipPath><clipPath id="466d8d5d79"><path d="M 267.722656 143.882812 L 250 153.824219 L 248.925781 151.914062 L 266.652344 141.972656 Z M 267.722656 143.882812 " clip-rule="nonzero"/></clipPath><clipPath id="77c4a28a92"><path d="M 141 107 L 154 107 L 154 127 L 141 127 Z M 141 107 " clip-rule="nonzero"/></clipPath><clipPath id="6cea6fc84a"><path d="M 151.734375 126.167969 L 141.796875 108.445312 L 143.707031 107.371094 L 153.648438 125.097656 Z M 151.734375 126.167969 " clip-rule="nonzero"/></clipPath><clipPath id="3d45c55bfa"><path d="M 221 248 L 234 248 L 234 268 L 221 268 Z M 221 248 " clip-rule="nonzero"/></clipPath><clipPath id="11c5f00644"><path d="M 231.109375 267.71875 L 221.171875 249.996094 L 223.082031 248.921875 L 233.023438 266.648438 Z M 231.109375 267.71875 " clip-rule="nonzero"/></clipPath></defs><g clip-path="url(#95878b96b1)"><path fill="#92bfff" d="M 194.90625 258.480469 L 194.90625 278.792969 L 180.300781 278.792969 L 180.300781 258.480469 Z M 194.90625 258.480469 " fill-opacity="1" fill-rule="nonzero"/></g><g clip-path="url(#f8369d6b2d)"><path fill="#00ebc7" d="M 194.90625 96.191406 L 194.90625 116.503906 L 180.300781 116.503906 L 180.300781 96.191406 Z M 194.90625 96.191406 " fill-opacity="1" fill-rule="nonzero"/></g><g clip-path="url(#6198b66fdc)"><path fill="#ffbbc6" d="M 116.515625 194.902344 L 96.203125 194.902344 L 96.203125 180.296875 L 116.515625 180.296875 Z M 116.515625 194.902344 " fill-opacity="1" fill-rule="nonzero"/></g><g clip-path="url(#6fb9be221b)"><path fill="#fde24f" d="M 278.804688 194.902344 L 258.492188 194.902344 L 258.492188 180.296875 L 278.804688 180.296875 Z M 278.804688 194.902344 " fill-opacity="1" fill-rule="nonzero"/></g><g clip-path="url(#a9eece8c59)"><g clip-path="url(#22e7d491e7)"><path fill="#fde24f" d="M 156.257812 251.664062 L 145.519531 268.90625 L 133.121094 261.183594 L 143.859375 243.941406 Z M 156.257812 251.664062 " fill-opacity="1" fill-rule="nonzero"/></g></g><g clip-path="url(#5bd38dc61c)"><g clip-path="url(#227e694f09)"><path fill="#ffbbc6" d="M 242.054688 113.910156 L 231.316406 131.152344 L 218.917969 123.429688 L 229.65625 106.1875 Z M 242.054688 113.910156 " fill-opacity="1" fill-rule="nonzero"/></g></g><g clip-path="url(#d2e68800de)"><g clip-path="url(#3107781797)"><path fill="#fde24f" d="M 123.332031 156.257812 L 106.089844 145.519531 L 113.8125 133.121094 L 131.054688 143.859375 Z M 123.332031 156.257812 " fill-opacity="1" fill-rule="nonzero"/></g></g><g clip-path="url(#12c24ce842)"><g clip-path="url(#60da03171a)"><path fill="#00ebc7" d="M 261.085938 242.050781 L 243.84375 231.3125 L 251.566406 218.914062 L 268.808594 229.652344 Z M 261.085938 242.050781 " fill-opacity="1" fill-rule="nonzero"/></g></g><g clip-path="url(#47b8b0b18c)"><g clip-path="url(#12c309126d)"><path fill="#00ebc7" d="M 129.207031 228.675781 L 111.492188 238.609375 L 104.347656 225.871094 L 122.0625 215.933594 Z M 129.207031 228.675781 " fill-opacity="1" fill-rule="nonzero"/></g></g><g clip-path="url(#63de21e7f9)"><g clip-path="url(#466d8d5d79)"><path fill="#92bfff" d="M 270.757812 149.300781 L 253.042969 159.234375 L 245.898438 146.492188 L 263.613281 136.558594 Z M 270.757812 149.300781 " fill-opacity="1" fill-rule="nonzero"/></g></g><g clip-path="url(#77c4a28a92)"><g clip-path="url(#6cea6fc84a)"><path fill="#92bfff" d="M 146.320312 129.207031 L 136.386719 111.488281 L 149.125 104.34375 L 159.0625 122.0625 Z M 146.320312 129.207031 " fill-opacity="1" fill-rule="nonzero"/></g></g><g clip-path="url(#3d45c55bfa)"><g clip-path="url(#11c5f00644)"><path fill="#ffbbc6" d="M 225.695312 270.757812 L 215.761719 253.039062 L 228.503906 245.894531 L 238.4375 263.613281 Z M 225.695312 270.757812 " fill-opacity="1" fill-rule="nonzero"/></g></g><g fill="#00214d" fill-opacity="1"><g transform="translate(163.830113, 200.655769)"><g><path d="M 7.484375 2.484375 C 7.941406 2.484375 8.394531 2.398438 8.84375 2.234375 C 9.289062 2.066406 9.6875 1.789062 10.03125 1.40625 C 10.382812 1.03125 10.664062 0.535156 10.875 -0.078125 C 11.09375 -0.703125 11.203125 -1.460938 11.203125 -2.359375 C 11.203125 -3.316406 10.960938 -4.242188 10.484375 -5.140625 C 10.015625 -6.046875 9.421875 -6.9375 8.703125 -7.8125 C 7.992188 -8.6875 7.222656 -9.554688 6.390625 -10.421875 C 5.566406 -11.285156 4.796875 -12.164062 4.078125 -13.0625 C 3.359375 -13.96875 2.757812 -14.894531 2.28125 -15.84375 C 1.8125 -16.800781 1.578125 -17.800781 1.578125 -18.84375 C 1.578125 -19.882812 1.769531 -20.828125 2.15625 -21.671875 C 2.539062 -22.515625 3.0625 -23.226562 3.71875 -23.8125 C 4.375 -24.40625 5.140625 -24.859375 6.015625 -25.171875 C 6.890625 -25.492188 7.828125 -25.65625 8.828125 -25.65625 C 9.890625 -25.65625 10.832031 -25.546875 11.65625 -25.328125 C 12.488281 -25.109375 13.191406 -24.804688 13.765625 -24.421875 C 14.347656 -24.035156 14.785156 -23.582031 15.078125 -23.0625 C 15.378906 -22.539062 15.53125 -21.988281 15.53125 -21.40625 C 15.53125 -21.132812 15.488281 -20.851562 15.40625 -20.5625 C 15.332031 -20.269531 15.207031 -20 15.03125 -19.75 C 14.863281 -19.507812 14.644531 -19.3125 14.375 -19.15625 C 14.113281 -19 13.804688 -18.921875 13.453125 -18.921875 C 13.035156 -18.921875 12.722656 -19.046875 12.515625 -19.296875 C 12.316406 -19.554688 12.171875 -19.875 12.078125 -20.25 C 11.984375 -20.632812 11.898438 -21.050781 11.828125 -21.5 C 11.753906 -21.945312 11.644531 -22.359375 11.5 -22.734375 C 11.351562 -23.117188 11.128906 -23.4375 10.828125 -23.6875 C 10.535156 -23.945312 10.101562 -24.078125 9.53125 -24.078125 C 9.21875 -24.078125 8.910156 -24.007812 8.609375 -23.875 C 8.304688 -23.738281 8.03125 -23.53125 7.78125 -23.25 C 7.539062 -22.96875 7.34375 -22.609375 7.1875 -22.171875 C 7.039062 -21.742188 6.96875 -21.234375 6.96875 -20.640625 C 6.96875 -19.953125 7.109375 -19.28125 7.390625 -18.625 C 7.679688 -17.96875 8.0625 -17.320312 8.53125 -16.6875 C 9 -16.050781 9.53125 -15.414062 10.125 -14.78125 C 10.726562 -14.144531 11.34375 -13.503906 11.96875 -12.859375 C 12.59375 -12.210938 13.207031 -11.550781 13.8125 -10.875 C 14.414062 -10.195312 14.953125 -9.488281 15.421875 -8.75 C 15.890625 -8.019531 16.265625 -7.253906 16.546875 -6.453125 C 16.835938 -5.648438 16.984375 -4.8125 16.984375 -3.9375 C 16.984375 -2.632812 16.734375 -1.476562 16.234375 -0.46875 C 15.734375 0.539062 15.054688 1.390625 14.203125 2.078125 C 13.347656 2.773438 12.347656 3.304688 11.203125 3.671875 C 10.066406 4.035156 8.847656 4.21875 7.546875 4.21875 C 6.378906 4.21875 5.347656 4.070312 4.453125 3.78125 C 3.554688 3.488281 2.796875 3.101562 2.171875 2.625 C 1.554688 2.144531 1.09375 1.597656 0.78125 0.984375 C 0.46875 0.367188 0.3125 -0.257812 0.3125 -0.90625 C 0.3125 -1.1875 0.351562 -1.484375 0.4375 -1.796875 C 0.519531 -2.109375 0.644531 -2.394531 0.8125 -2.65625 C 0.976562 -2.925781 1.1875 -3.148438 1.4375 -3.328125 C 1.6875 -3.503906 1.976562 -3.59375 2.3125 -3.59375 C 2.65625 -3.59375 2.929688 -3.503906 3.140625 -3.328125 C 3.359375 -3.160156 3.53125 -2.929688 3.65625 -2.640625 C 3.78125 -2.359375 3.878906 -2.03125 3.953125 -1.65625 C 4.035156 -1.289062 4.125 -0.921875 4.21875 -0.546875 C 4.3125 -0.171875 4.425781 0.195312 4.5625 0.5625 C 4.695312 0.925781 4.882812 1.25 5.125 1.53125 C 5.375 1.820312 5.6875 2.050781 6.0625 2.21875 C 6.4375 2.394531 6.910156 2.484375 7.484375 2.484375 Z M 7.484375 2.484375 "/></g></g></g><g fill="#00214d" fill-opacity="1"><g transform="translate(181.937995, 200.655769)"><g><path d="M 2.109375 -2.609375 C 2.109375 -3.003906 2.179688 -3.378906 2.328125 -3.734375 C 2.484375 -4.097656 2.6875 -4.410156 2.9375 -4.671875 C 3.195312 -4.929688 3.503906 -5.140625 3.859375 -5.296875 C 4.210938 -5.453125 4.59375 -5.53125 5 -5.53125 C 5.394531 -5.53125 5.769531 -5.453125 6.125 -5.296875 C 6.476562 -5.140625 6.785156 -4.929688 7.046875 -4.671875 C 7.316406 -4.410156 7.523438 -4.097656 7.671875 -3.734375 C 7.828125 -3.378906 7.90625 -3.003906 7.90625 -2.609375 C 7.90625 -2.191406 7.828125 -1.804688 7.671875 -1.453125 C 7.523438 -1.109375 7.316406 -0.804688 7.046875 -0.546875 C 6.785156 -0.296875 6.476562 -0.0976562 6.125 0.046875 C 5.769531 0.203125 5.394531 0.28125 5 0.28125 C 4.59375 0.28125 4.210938 0.203125 3.859375 0.046875 C 3.503906 -0.0976562 3.195312 -0.296875 2.9375 -0.546875 C 2.6875 -0.804688 2.484375 -1.109375 2.328125 -1.453125 C 2.179688 -1.804688 2.109375 -2.191406 2.109375 -2.609375 Z M 2.109375 -2.609375 "/></g></g></g><g fill="#00214d" fill-opacity="1"><g transform="translate(191.99639, 200.655769)"><g><path d="M 13.1875 -24.1875 C 12.875 -24.1875 12.507812 -24.125 12.09375 -24 C 11.6875 -23.875 11.269531 -23.632812 10.84375 -23.28125 C 10.414062 -22.9375 9.992188 -22.445312 9.578125 -21.8125 C 9.160156 -21.1875 8.789062 -20.375 8.46875 -19.375 C 8.144531 -18.375 7.878906 -17.15625 7.671875 -15.71875 C 7.472656 -14.289062 7.375 -12.601562 7.375 -10.65625 C 7.375 -8.800781 7.472656 -7.191406 7.671875 -5.828125 C 7.878906 -4.472656 8.148438 -3.316406 8.484375 -2.359375 C 8.828125 -1.398438 9.210938 -0.617188 9.640625 -0.015625 C 10.078125 0.585938 10.535156 1.054688 11.015625 1.390625 C 11.492188 1.734375 11.972656 1.96875 12.453125 2.09375 C 12.941406 2.21875 13.394531 2.28125 13.8125 2.28125 C 14.257812 2.28125 14.710938 2.222656 15.171875 2.109375 C 15.628906 1.992188 16.078125 1.828125 16.515625 1.609375 C 16.960938 1.390625 17.390625 1.125 17.796875 0.8125 C 18.203125 0.507812 18.578125 0.160156 18.921875 -0.234375 L 19.6875 0.53125 C 19.34375 0.957031 18.929688 1.390625 18.453125 1.828125 C 17.972656 2.265625 17.414062 2.664062 16.78125 3.03125 C 16.144531 3.394531 15.429688 3.6875 14.640625 3.90625 C 13.847656 4.132812 12.972656 4.25 12.015625 4.25 C 10.515625 4.25 9.117188 3.960938 7.828125 3.390625 C 6.546875 2.828125 5.425781 1.941406 4.46875 0.734375 C 3.507812 -0.472656 2.757812 -2.019531 2.21875 -3.90625 C 1.675781 -5.800781 1.40625 -8.0625 1.40625 -10.6875 C 1.40625 -13.164062 1.691406 -15.335938 2.265625 -17.203125 C 2.835938 -19.066406 3.613281 -20.625 4.59375 -21.875 C 5.582031 -23.132812 6.738281 -24.078125 8.0625 -24.703125 C 9.394531 -25.335938 10.8125 -25.65625 12.3125 -25.65625 C 13.300781 -25.65625 14.203125 -25.5625 15.015625 -25.375 C 15.835938 -25.1875 16.546875 -24.910156 17.140625 -24.546875 C 17.742188 -24.191406 18.207031 -23.75 18.53125 -23.21875 C 18.851562 -22.6875 19.015625 -22.082031 19.015625 -21.40625 C 19.015625 -21.09375 18.960938 -20.769531 18.859375 -20.4375 C 18.765625 -20.101562 18.609375 -19.796875 18.390625 -19.515625 C 18.179688 -19.234375 17.921875 -19.003906 17.609375 -18.828125 C 17.304688 -18.648438 16.945312 -18.5625 16.53125 -18.5625 C 16.164062 -18.5625 15.878906 -18.640625 15.671875 -18.796875 C 15.472656 -18.953125 15.328125 -19.160156 15.234375 -19.421875 C 15.140625 -19.691406 15.078125 -19.992188 15.046875 -20.328125 C 15.015625 -20.671875 14.992188 -21.019531 14.984375 -21.375 C 14.972656 -21.726562 14.945312 -22.070312 14.90625 -22.40625 C 14.863281 -22.75 14.78125 -23.050781 14.65625 -23.3125 C 14.539062 -23.570312 14.367188 -23.78125 14.140625 -23.9375 C 13.910156 -24.101562 13.59375 -24.1875 13.1875 -24.1875 Z M 13.1875 -24.1875 "/></g></g></g></svg>